<svg width="70" height="44" viewBox="0 0 70 44" fill="none" xmlns="http://www.w3.org/2000/svg">
<g clip-path="url(#clip0_315_2765)">
<path d="M67.5153 3.12394e-05H25.3848C25.3004 -0.000414602 25.2161 0.00391209 25.1322 0.0129908C25.0464 0.0224945 24.9665 0.0337261 24.8849 0.0501416C24.8044 0.0661718 24.7249 0.087236 24.647 0.113211C24.5691 0.138127 24.4926 0.166963 24.4176 0.199609C24.3439 0.230722 24.2719 0.26591 24.2021 0.305013C24.1726 0.320191 24.1439 0.336917 24.1162 0.355123C24.1033 0.362899 24.0904 0.370675 24.0767 0.377587L23.9813 0.442384C23.9126 0.490767 23.8482 0.540877 23.7838 0.595307C23.752 0.622954 23.7211 0.650601 23.691 0.681704C23.661 0.712807 23.6318 0.740454 23.6051 0.768101L23.5502 0.821668L23.5407 0.832899L23.3002 1.07222L22.6174 1.7634C22.5882 1.79277 22.5581 1.82215 22.5435 1.83943C22.5143 1.86707 22.4843 1.89645 22.4662 1.91718L22.3924 1.99148C22.3606 2.02086 22.3314 2.05283 22.3168 2.06751C22.2867 2.09516 22.2575 2.1254 22.2386 2.14527L22.0875 2.29819C21.8429 2.5303 21.6481 2.81033 21.5151 3.12102C21.3822 3.43172 21.3139 3.7665 21.3145 4.10476V10.6269C21.316 11.2879 21.5773 11.9216 22.0412 12.3898C22.5052 12.8579 23.1343 13.1227 23.7915 13.1263H25.1262V17.6553L30.618 13.1263H65.9186C66.2525 13.1271 66.583 13.0594 66.8899 12.9271C67.1968 12.7949 67.4736 12.601 67.7034 12.3574L67.8554 12.2045C67.8846 12.1768 67.9147 12.1475 67.931 12.1285C67.9577 12.1047 67.983 12.0793 68.0066 12.0524L68.1578 11.9004C68.1895 11.871 68.2188 11.8408 68.2359 11.8243L68.3854 11.6723C68.4163 11.642 68.4464 11.6127 68.461 11.5954L68.8432 11.2109C68.8724 11.1833 68.9024 11.1539 68.9153 11.1392C68.9462 11.109 68.9754 11.0796 68.9926 11.0606L69.1644 10.8878C69.1695 10.8826 69.1756 10.8792 69.179 10.8748L69.2194 10.8325C69.2514 10.8031 69.2823 10.7743 69.3121 10.7461L69.398 10.6511C69.4195 10.6251 69.4401 10.601 69.4607 10.575C69.4938 10.5355 69.5245 10.4939 69.5526 10.4506C69.5767 10.4152 69.6007 10.3798 69.623 10.3444C69.7122 10.2003 69.7865 10.0475 69.8446 9.88818C69.8682 9.82475 69.8886 9.76015 69.9056 9.69465C69.9219 9.64108 69.9348 9.58665 69.946 9.53309C69.9623 9.44669 69.9735 9.3698 69.9829 9.28426C69.9921 9.19818 69.9964 9.11165 69.9958 9.02507V2.4995C69.9942 1.83784 69.7325 1.20366 69.2678 0.735391C68.8031 0.267119 68.1731 0.00276725 67.5153 3.12394e-05ZM69.3628 9.02507C69.3628 9.51819 69.1682 9.99115 68.8218 10.3401C68.4754 10.689 68.0055 10.8854 67.5153 10.8861H31.9837L27.3568 14.704V10.8861H25.3813C24.8911 10.8854 24.4212 10.689 24.0748 10.3401C23.7284 9.99115 23.5338 9.51819 23.5338 9.02507V2.4995C23.5345 2.00623 23.7299 1.53342 24.0769 1.18495C24.424 0.83648 24.8944 0.640868 25.3848 0.641098H67.5153C68.0051 0.641783 68.4746 0.837799 68.8209 1.18617C69.1673 1.53454 69.3621 2.00683 69.3628 2.4995V9.02507Z" fill="white"/>
<path d="M69.3622 2.49952V9.02509C69.3622 9.51821 69.1676 9.99117 68.8212 10.3401C68.4748 10.689 68.0049 10.8854 67.5147 10.8861H31.983L27.3561 14.704V10.8861H25.3807C24.8905 10.8854 24.4206 10.689 24.0742 10.3401C23.7278 9.99117 23.5332 9.51821 23.5332 9.02509V2.49952C23.5339 2.00625 23.7292 1.53343 24.0763 1.18496C24.4234 0.836495 24.8938 0.640884 25.3841 0.641113H67.5147C68.0045 0.641799 68.474 0.837815 68.8203 1.18618C69.1666 1.53455 69.3615 2.00685 69.3622 2.49952Z" fill="#FF6711"/>
<path d="M23.5469 0.821116L23.6018 0.767549C23.631 0.73731 23.6611 0.706208 23.6877 0.681152C23.6383 0.725257 23.5913 0.771978 23.5469 0.821116ZM69.2272 10.8328L69.1869 10.8751C69.2338 10.8334 69.2782 10.789 69.32 10.7421C69.2885 10.7732 69.2576 10.8034 69.2272 10.8328Z" fill="white"/>
<path d="M15.9746 22.8365C16.472 22.0781 16.733 21.1877 16.7244 20.2791C16.7613 17.6941 14.5883 15.5273 12.0271 15.5549H0.0566406V28.0549H4.90253V25.0042H9.22793L11.5676 28.0549H16.7278L14.0188 24.5489C14.8184 24.1753 15.4964 23.5816 15.9746 22.8365ZM11.5547 21.0317C11.4578 21.1321 11.3414 21.2114 11.2126 21.2645C11.0839 21.3175 10.9457 21.3433 10.8066 21.3401H4.90253V19.2095H10.81C10.9499 19.209 11.0884 19.2362 11.2177 19.2898C11.347 19.3433 11.4645 19.4221 11.5635 19.5215C11.6624 19.6209 11.7408 19.7391 11.7941 19.8691C11.8474 19.9991 11.8746 20.1385 11.8742 20.2791C11.8755 20.4197 11.8481 20.5589 11.7937 20.6884C11.7393 20.8178 11.6592 20.9346 11.5581 21.0317H11.5547Z" fill="white"/>
<path d="M30.1646 15.5454V21.9526C30.1913 24.0089 28.5087 24.3631 26.5298 24.389C24.5432 24.3631 22.8692 24.0089 22.8872 21.9526V15.5454H18.043V22.2611C18.0241 26.9853 21.8703 28.3426 26.5298 28.3521C31.1919 28.3426 35.0371 26.9853 35.0191 22.2611V15.5454H30.1646Z" fill="white"/>
<path d="M44.9296 20.3821C42.9799 20.2888 41.4717 20.2145 41.4717 19.6667C41.4717 18.6714 43.3218 18.4468 44.8283 18.4468C46.3348 18.4468 47.6309 18.6809 48.1848 19.6667H53.2618C52.798 15.7599 49.1837 15.2674 44.8283 15.2397C40.4634 15.2397 36.3965 16.0933 36.3965 19.6667C36.3871 22.7909 41.2596 23.0319 44.7278 23.209C46.6792 23.3041 48.1857 23.387 48.1857 23.9356C48.1857 24.9024 46.3374 25.1538 44.8291 25.1538C43.3209 25.1538 42.0283 24.9024 41.4726 23.9356H36.3965C36.8586 27.8131 40.4728 28.3419 44.8283 28.3531C49.1837 28.3643 53.2618 27.5064 53.2618 23.9356C53.2704 20.7994 48.397 20.5627 44.9296 20.3821Z" fill="white"/>
<path d="M53.4121 15.5645V19.5258H59.1719V28.0644H64.0169V19.5258H69.7767V15.5645H53.4121Z" fill="white"/>
<path d="M4.84417 39.0638V30.5269H0V43.0259H14.5428V39.0638H4.84417Z" fill="white"/>
<path d="M27.3406 30.5459H21.58L14.9141 43.0458H20.3689L21.3498 40.9066H27.5707L28.5516 43.0458H34.0073L27.3406 30.5459ZM22.7541 37.8551L24.4641 34.1633L26.1665 37.8551H22.7541Z" fill="white"/>
<path d="M46.5005 30.5269V37.1509L41.0448 30.5286H34.3789V43.0259H39.2231V35.391L45.8984 43.0259H51.3541V30.5269H46.5005Z" fill="white"/>
<path d="M61.5252 38.3028H65.4263C64.6954 39.2531 63.4749 39.3611 61.5613 39.3611C59.5729 39.3352 57.8895 38.981 57.917 36.9247V36.6189C57.8895 34.5834 59.5729 34.2101 61.5613 34.1816C62.2116 34.1743 62.8603 34.2491 63.4921 34.4045C64.0667 34.5531 64.5099 34.8365 64.8156 35.2521H69.969C69.4245 31.4022 65.8746 30.2212 61.5656 30.2212C56.8872 30.2298 53.0625 31.588 53.0762 36.3217V37.2375C53.0582 41.9617 56.8872 43.3199 61.5656 43.338C63.6716 43.338 65.8652 42.8274 67.3073 41.3941L67.5469 43.338H69.969V36.167H61.5252V38.3028Z" fill="white"/>
<path d="M27.6607 7.74561L27.2871 7.578L29.357 3.2832L29.7255 3.46118L27.6607 7.74561ZM30.508 4.28973L30.5518 5.26774L29.6456 4.92475L29.5048 5.36105L30.4384 5.62024L29.8372 6.38572L30.2056 6.65355L30.7433 5.84229L31.2793 6.65269L31.6477 6.38486L31.0465 5.61938L31.9793 5.36019L31.8367 4.92475L30.9297 5.26342L30.9735 4.28541L30.508 4.28973Z" fill="white"/>
<path d="M35.2587 6.11019C35.261 6.27066 35.2998 6.42847 35.3721 6.57155C35.4301 6.68334 35.5198 6.77533 35.6298 6.83592C35.7387 6.89316 35.8599 6.92282 35.9828 6.92232C36.1024 6.92364 36.2213 6.90375 36.3341 6.86357C36.4492 6.81967 36.5586 6.76163 36.6596 6.69077L36.87 6.98539C36.6123 7.18742 36.2949 7.29718 35.9682 7.29728C35.7395 7.30349 35.5138 7.24352 35.318 7.12449C35.1398 7.01064 34.9988 6.84659 34.9126 6.65276C34.8207 6.43192 34.7734 6.19492 34.7734 5.95553C34.7734 5.71615 34.8207 5.47915 34.9126 5.25831C34.998 5.06523 35.1343 4.89939 35.3068 4.77881C35.4818 4.66759 35.6838 4.60671 35.8908 4.60275C36.0977 4.59879 36.3018 4.6519 36.4809 4.75634C36.6429 4.86408 36.7698 5.0173 36.846 5.19697C36.9368 5.41141 36.9808 5.64301 36.9748 5.87605C36.9748 5.92011 36.9748 5.96245 36.9748 6.00305C36.9748 6.04366 36.9705 6.07908 36.9671 6.11019H35.2587ZM35.9183 4.97234C35.8335 4.97023 35.7491 4.98649 35.671 5.02003C35.5929 5.05357 35.5229 5.1036 35.4657 5.16673C35.3455 5.29748 35.2765 5.49907 35.2587 5.77151H36.5282C36.523 5.51117 36.4658 5.31332 36.3564 5.17796C36.3046 5.11146 36.2379 5.05819 36.1618 5.02246C36.0857 4.98673 36.0023 4.96956 35.9183 4.97234Z" fill="white"/>
<path d="M37.3066 7.23652V4.66535H37.7052L37.7387 5.01093C37.8416 4.88138 37.9734 4.77807 38.1235 4.70941C38.2646 4.64148 38.4188 4.6055 38.5752 4.604C38.8209 4.604 39.0047 4.67139 39.1181 4.80531C39.2413 4.96424 39.3025 5.16311 39.2898 5.3643V7.23652H38.8243V5.65373C38.8264 5.52128 38.8172 5.3889 38.7968 5.25803C38.7868 5.17264 38.7454 5.09409 38.6809 5.03772C38.6029 4.98633 38.5102 4.96233 38.4172 4.96946C38.3279 4.96968 38.2397 4.99036 38.1595 5.02994C38.0786 5.06997 38.0039 5.12179 37.9379 5.18373C37.8757 5.2415 37.8201 5.30613 37.7722 5.37639V7.23652H37.3066Z" fill="white"/>
<path d="M42.5306 6.1103C42.5329 6.27077 42.5717 6.42858 42.644 6.57166C42.7017 6.68363 42.7915 6.77569 42.9016 6.83603C43.0106 6.89327 43.1317 6.92293 43.2546 6.92243C43.3742 6.92368 43.4931 6.90379 43.6059 6.86368C43.7211 6.81978 43.8304 6.76174 43.9314 6.69089L44.1479 6.9855C43.8902 7.18754 43.5728 7.2973 43.246 7.29739C43.0173 7.30361 42.7917 7.24363 42.5959 7.1246C42.4154 7.01166 42.2723 6.84752 42.1844 6.65287C42.0876 6.43176 42.0401 6.19201 42.0453 5.95046C42.0414 5.71265 42.0888 5.47682 42.1844 5.25929C42.2696 5.06605 42.406 4.90014 42.5787 4.77978C42.7537 4.66857 42.9556 4.60768 43.1626 4.60372C43.3696 4.59976 43.5737 4.65288 43.7528 4.75732C43.9152 4.86375 44.043 5.01574 44.1204 5.19449C44.2113 5.40893 44.2552 5.64053 44.2492 5.87357C44.2492 5.91763 44.2492 5.95997 44.2492 6.00057C44.2492 6.04118 44.2492 6.0766 44.2415 6.10771L42.5306 6.1103ZM43.1894 4.97245C43.1046 4.97041 43.0204 4.98671 42.9425 5.02025C42.8645 5.05379 42.7946 5.10378 42.7376 5.16684C42.6173 5.29759 42.5483 5.49918 42.5306 5.77162H43.8043C43.7992 5.51128 43.7419 5.31343 43.6325 5.17807C43.5802 5.11085 43.5127 5.05713 43.4357 5.02138C43.3586 4.98562 43.2742 4.96884 43.1894 4.97245Z" fill="white"/>
<path d="M45.4711 6.9248C45.624 6.93373 45.7764 6.8993 45.9108 6.82544C45.96 6.79809 46.001 6.7579 46.0294 6.70909C46.0579 6.66028 46.0727 6.60467 46.0723 6.54811C46.0745 6.48125 46.0598 6.41493 46.0294 6.35544C45.9887 6.28967 45.9286 6.23832 45.8576 6.20857C45.7293 6.15126 45.5958 6.10642 45.459 6.07465C45.3036 6.03573 45.1518 5.98312 45.0055 5.91741C44.8879 5.868 44.7847 5.78919 44.7058 5.68845C44.6317 5.5816 44.5945 5.45318 44.6002 5.323C44.5971 5.18594 44.6404 5.0519 44.723 4.94285C44.8125 4.82941 44.9314 4.74301 45.0665 4.69316C45.2341 4.63231 45.4114 4.60302 45.5896 4.60676C45.7761 4.60422 45.9616 4.63343 46.1384 4.69316C46.2798 4.74198 46.4132 4.81156 46.5344 4.89965L46.3351 5.20377C46.2344 5.13669 46.126 5.08215 46.0122 5.04134C45.8792 4.99593 45.7394 4.97429 45.599 4.97741C45.459 4.966 45.3187 4.99603 45.1954 5.0638C45.1579 5.08861 45.1272 5.12251 45.1062 5.16237C45.0852 5.20223 45.0745 5.24678 45.0751 5.29189C45.0734 5.35482 45.0944 5.41624 45.1344 5.46469C45.1922 5.52251 45.2624 5.56625 45.3397 5.59255C45.4712 5.64312 45.6054 5.68638 45.7416 5.72215C45.8919 5.76148 46.038 5.81529 46.1779 5.88285C46.2929 5.93687 46.392 6.01991 46.4657 6.1239C46.5393 6.24118 46.5753 6.37843 46.5687 6.517C46.5758 6.68101 46.5195 6.84141 46.4116 6.96454C46.2997 7.08336 46.1587 7.17038 46.0027 7.21682C45.8298 7.27123 45.6496 7.29834 45.4685 7.29717C45.2634 7.30226 45.0593 7.26765 44.8673 7.19522C44.7144 7.13529 44.5725 7.05034 44.4473 6.94381L44.7049 6.6466C44.8084 6.73118 44.9243 6.79909 45.0485 6.8479C45.1832 6.90024 45.3266 6.92633 45.4711 6.9248Z" fill="white"/>
<path d="M48.1889 4.60601C48.3837 4.59633 48.5756 4.65531 48.7318 4.77275C48.8745 4.89518 48.9767 5.05856 49.0247 5.24102C49.0887 5.47154 49.119 5.71018 49.1148 5.94948C49.1184 6.18448 49.0815 6.41833 49.0058 6.64066C48.9438 6.82831 48.8303 6.99452 48.6785 7.12016C48.5212 7.23911 48.3281 7.30011 48.1314 7.29296C48.0059 7.29797 47.8808 7.2743 47.7657 7.22372C47.6505 7.17314 47.5483 7.09697 47.4666 7.00093V8.22086L47.002 8.27788V4.66562H47.4013L47.4357 5.01121C47.5237 4.88627 47.6388 4.78315 47.7724 4.70968C47.9004 4.64054 48.0436 4.60489 48.1889 4.60601ZM48.0704 4.97406C47.943 4.9726 47.8189 5.01531 47.7191 5.09501C47.6205 5.17163 47.5352 5.26418 47.4666 5.36889V6.61215C47.5276 6.70442 47.6087 6.78153 47.7037 6.83764C47.7982 6.89433 47.9062 6.92419 48.0163 6.92404C48.1059 6.92868 48.1952 6.90938 48.275 6.86811C48.3548 6.82684 48.4223 6.76506 48.4707 6.68904C48.572 6.5318 48.6227 6.28672 48.6227 5.9538C48.6272 5.76876 48.607 5.58394 48.5626 5.40432C48.5347 5.28108 48.4707 5.16911 48.3788 5.08292C48.2926 5.01006 48.183 4.97136 48.0704 4.97406Z" fill="white"/>
<path d="M51.3063 6.64658C51.3003 6.72412 51.3174 6.80167 51.3552 6.86949C51.3934 6.92003 51.4472 6.95647 51.5081 6.97316L51.3982 7.29542C51.2909 7.28315 51.1876 7.24716 51.0958 7.19002C51.0057 7.1291 50.9383 7.03973 50.9043 6.93601C50.8133 7.05478 50.6931 7.14768 50.5556 7.20557C50.4109 7.26761 50.255 7.29879 50.0978 7.29715C49.9869 7.30338 49.8759 7.28724 49.7714 7.24971C49.6668 7.21217 49.5707 7.15398 49.4888 7.07857C49.4142 7.00261 49.356 6.91202 49.3177 6.81243C49.2794 6.71284 49.262 6.60639 49.2664 6.49971C49.2608 6.37874 49.2865 6.25839 49.341 6.15042C49.3955 6.04244 49.4769 5.95054 49.5773 5.8837C49.7851 5.74028 50.0838 5.66857 50.4731 5.66857H50.8459V5.47417C50.8459 5.29735 50.7938 5.1715 50.6896 5.09662C50.5596 5.01433 50.4074 4.97477 50.2541 4.98344C50.1532 4.98547 50.0526 4.99617 49.9535 5.0154C49.8275 5.03941 49.7035 5.07292 49.5824 5.11563L49.4639 4.77004C49.6111 4.71285 49.7632 4.66946 49.9183 4.64044C50.0523 4.61558 50.1882 4.60257 50.3245 4.60156C50.6544 4.60156 50.9009 4.67673 51.064 4.82706C51.1466 4.90622 51.2112 5.00242 51.2533 5.10905C51.2954 5.21568 51.314 5.33022 51.308 5.4448L51.3063 6.64658ZM50.2283 6.94638C50.3489 6.94575 50.4672 6.91391 50.5719 6.85394C50.6821 6.7912 50.7753 6.7022 50.8433 6.59474V5.97268H50.4997C50.2301 5.97268 50.0385 6.01876 49.9252 6.11092C49.869 6.15543 49.8242 6.2127 49.7943 6.27803C49.7644 6.34337 49.7504 6.4149 49.7534 6.48675C49.7484 6.54925 49.7562 6.6121 49.7761 6.67151C49.796 6.73091 49.8277 6.78563 49.8693 6.83234C49.9184 6.87483 49.9755 6.90685 50.0372 6.92645C50.0989 6.94605 50.1639 6.95284 50.2283 6.94638Z" fill="white"/>
<path d="M51.8477 7.23656V4.66538H52.247L52.2814 5.01097C52.3838 4.88124 52.5154 4.77788 52.6653 4.70944C52.8065 4.64159 52.9607 4.60562 53.1171 4.60404C53.3628 4.60404 53.5437 4.67114 53.6599 4.80534C53.7836 4.96408 53.8447 5.16309 53.8317 5.36433V7.23656H53.3662V5.65376C53.3682 5.52132 53.3591 5.38894 53.3387 5.25807C53.3286 5.17268 53.2873 5.09412 53.2227 5.03775C53.1445 4.9863 53.0515 4.9623 52.9582 4.9695C52.8689 4.9696 52.7807 4.99028 52.7005 5.02998C52.6192 5.06979 52.5442 5.12163 52.4781 5.18376C52.4161 5.24177 52.3605 5.30637 52.3123 5.37643V7.23656H51.8477ZM53.1197 4.04505C53.041 4.04754 52.9633 4.02746 52.8955 3.98716C52.8337 3.94742 52.7761 3.90854 52.7237 3.86966C52.676 3.83235 52.6175 3.81172 52.5571 3.81091C52.5312 3.81053 52.5054 3.81537 52.4814 3.82517C52.4573 3.83496 52.4355 3.8495 52.4171 3.86794C52.3704 3.91772 52.3313 3.97421 52.3012 4.03555L52.022 3.89386C52.0748 3.77818 52.1489 3.67355 52.2402 3.58542C52.2819 3.54389 52.3314 3.51106 52.3858 3.48882C52.4402 3.46658 52.4984 3.45536 52.5571 3.45582C52.6371 3.45305 52.7162 3.4728 52.7856 3.51284C52.8466 3.55172 52.9032 3.58974 52.9574 3.62862C53.0043 3.66669 53.0628 3.68743 53.1231 3.68737C53.1723 3.68736 53.2196 3.66851 53.2554 3.63466C53.3044 3.58811 53.3464 3.53454 53.3799 3.47569L53.6565 3.61479C53.6051 3.7393 53.525 3.84974 53.4229 3.93705C53.3373 4.00724 53.2301 4.0454 53.1197 4.04505Z" fill="white"/>
<path d="M55.2673 4.6061C55.4841 4.5987 55.6982 4.65645 55.8823 4.77198C56.0508 4.88675 56.1815 5.0495 56.2576 5.23939C56.3468 5.46517 56.3901 5.70667 56.3847 5.94958C56.3903 6.19025 56.347 6.42954 56.2576 6.65285C56.179 6.84479 56.0472 7.01001 55.878 7.1289C55.6959 7.24806 55.4819 7.30836 55.2647 7.30169C55.0482 7.30866 54.8345 7.25093 54.6506 7.13581C54.4804 7.02195 54.3484 6.85903 54.2718 6.6684C54.1815 6.4429 54.1377 6.20128 54.143 5.95822C54.1386 5.71738 54.1827 5.47814 54.2727 5.25494C54.3513 5.06314 54.4838 4.89859 54.6541 4.78149C54.8362 4.66211 55.05 4.60097 55.2673 4.6061ZM55.2673 4.97847C55.1744 4.97322 55.0817 4.99246 54.9984 5.03428C54.9151 5.0761 54.844 5.13905 54.7923 5.21693C54.6858 5.37504 54.6326 5.62127 54.6326 5.9539C54.6326 6.28652 54.685 6.52844 54.7898 6.68741C54.8449 6.76094 54.9163 6.8206 54.9983 6.86168C55.0802 6.90276 55.1706 6.92414 55.2622 6.92414C55.3537 6.92414 55.4441 6.90276 55.526 6.86168C55.608 6.8206 55.6794 6.76094 55.7345 6.68741C55.8393 6.52844 55.8917 6.28249 55.8917 5.94958C55.8917 5.61666 55.8396 5.37216 55.7354 5.21606C55.6849 5.13865 55.6151 5.07595 55.533 5.03425C55.4508 4.99255 55.3592 4.97331 55.2673 4.97847Z" fill="white"/>
<path d="M57.7437 3.6333V6.5708C57.7394 6.62011 57.7476 6.6697 57.7674 6.715C57.7872 6.7603 57.818 6.79985 57.8571 6.82999C57.9454 6.88377 58.0476 6.91021 58.1508 6.90602C58.2234 6.90652 58.2957 6.8984 58.3664 6.88183C58.4355 6.86517 58.5035 6.8441 58.5699 6.81876L58.691 7.15225C58.6057 7.19321 58.5165 7.22562 58.4248 7.24902C58.3066 7.27871 58.185 7.29294 58.0632 7.29135C57.8538 7.30207 57.6486 7.22944 57.492 7.08919C57.4193 7.01711 57.3626 6.93031 57.3257 6.83454C57.2889 6.73877 57.2726 6.63621 57.2782 6.53365V3.98926H56.5V3.6333H57.7437Z" fill="white"/>
<path d="M62.4548 4.28627L62.411 5.26429L63.318 4.92475L63.458 5.36105L62.5252 5.62024L63.1265 6.38572L62.7606 6.65269L62.222 5.84142L61.6844 6.65269L61.3159 6.38486L61.9171 5.61938L60.9844 5.36019L61.127 4.92475L62.0331 5.26342L61.9893 4.28541L62.4548 4.28627ZM65.7719 3.46291L65.4043 3.2832L63.3343 7.578L63.7071 7.74561L65.7719 3.46291Z" fill="white"/>
</g>
<defs>
<clipPath id="clip0_315_2765">
<rect width="70" height="43.3333" fill="white"/>
</clipPath>
</defs>
</svg>
